# xmcd
#
# Track frame offsets:
# 150
# 22650
# 45150
# 67650
# 90150
# 112650
#
# Disc length: 1916 seconds
#
# Revision: 0
# Processed by: cddbd v1.5.1PL0 Copyright (c) Steve Scherf et al.
# Submitted via: Audion 3.0.2 (http://www.panic.com/audion/)
#
DISCID=27077a06
DTITLE=Roxanne Emmerich - Leadership(disk 11)
DYEAR=1900
DGENRE=
TTITLE0=Thank God It's Monday
TTITLE1=How to Build a Motivating Workplace
TTITLE2=Start
TTITLE3=13 Myths
TTITLE4=Transform
TTITLE5=Your Work
EXTD=
EXTT0=
EXTT1=
EXTT2=
EXTT3=
EXTT4=
EXTT5=
PLAYORDER=
